<?xml version="1.0" standalone="no"?>
<!DOCTYPE svg PUBLIC "-//W3C//DTD SVG 20010904//EN"
 "http://www.w3.org/TR/2001/REC-SVG-20010904/DTD/svg10.dtd">
<svg version="1.0" xmlns="http://www.w3.org/2000/svg"
   viewBox="0 0 512.000000 512.000000"
 preserveAspectRatio="xMidYMid meet">

<g transform="translate(0.000000,512.000000) scale(0.100000,-0.100000)"
fill="#000000" stroke="none">
<path d="M2481 5110 c-110 -23 -209 -67 -330 -145 -154 -100 -280 -130 -486
-119 -122 6 -230 -9 -328 -46 -113 -42 -222 -157 -315 -331 -58 -109 -111
-185 -159 -231 -44 -42 -154 -114 -234 -152 -80 -39 -183 -120 -239 -187 -86
-103 -126 -256 -116 -444 11 -206 -19 -332 -119 -486 -198 -307 -198 -511 0
-818 100 -154 130 -280 119 -486 -10 -188 30 -341 116 -444 56 -67 159 -148
239 -187 80 -38 190 -110 234 -152 48 -45 101 -122 157 -227 61 -114 95 -162
167 -232 71 -71 110 -93 214 -124 63 -18 103 -22 274 -24 110 -1 221 -8 247
-14 67 -16 146 -52 228 -105 307 -199 512 -199 818 -2 79 52 167 92 232 108
25 6 135 12 245 13 171 2 211 6 274 24 104 31 143 53 214 124 72 70 106 118
167 232 106 198 168 259 365 364 154 82 267 180 315 272 49 94 62 174 65 384
1 110 7 220 13 245 16 65 56 153 108 232 197 305 197 511 0 816 -52 79 -92
167 -108 232 -6 25 -12 135 -13 245 -3 210 -16 290 -65 384 -48 92 -161 190
-315 271 -197 105 -259 167 -365 365 -61 114 -95 162 -167 232 -71 71 -110 93
-214 124 -63 18 -103 22 -274 24 -110 1 -220 7 -245 13 -65 16 -153 56 -232
108 -184 119 -359 170 -487 144z m154 -175 c81 -21 135 -47 228 -106 195 -125
288 -151 562 -154 168 -2 210 -6 261 -22 108 -35 177 -106 268 -278 117 -219
205 -305 440 -431 150 -81 226 -155 256 -251 19 -59 23 -94 25 -268 3 -277 27
-363 158 -570 59 -93 91 -164 108 -247 19 -85 -18 -202 -108 -343 -131 -207
-155 -293 -158 -570 -3 -251 -17 -306 -98 -387 -60 -61 -94 -85 -228 -157
-184 -100 -280 -196 -380 -380 -72 -134 -96 -168 -157 -228 -81 -81 -136 -95
-387 -98 -277 -3 -363 -27 -570 -158 -93 -59 -164 -91 -247 -108 -85 -19 -202
18 -343 108 -209 132 -292 155 -570 158 -175 2 -209 5 -268 24 -96 31 -171
107 -251 257 -68 127 -126 212 -186 272 -49 48 -177 136 -260 177 -80 40 -173
109 -210 155 -59 74 -72 139 -75 365 -3 277 -27 363 -158 570 -59 93 -91 164
-108 246 -19 88 18 204 114 356 64 100 118 220 137 303 7 31 13 141 15 255 3
261 16 307 110 399 41 41 92 77 147 106 249 128 343 220 474 464 81 150 155
226 251 257 59 19 94 22 268 24 276 3 366 28 561 153 92 59 148 86 225 106 70
19 83 19 154 1z"/>
<path d="M2503 4496 l-28 -24 0 -160 c0 -156 1 -161 24 -186 18 -19 35 -26 61
-26 26 0 43 7 61 26 23 25 24 30 24 186 l0 160 -28 24 c-16 13 -41 24 -57 24
-16 0 -41 -11 -57 -24z"/>
<path d="M1565 4245 c-41 -40 -33 -73 46 -211 39 -68 80 -131 92 -139 53 -37
127 2 127 67 0 38 -115 248 -156 286 -33 29 -78 29 -109 -3z"/>
<path d="M3446 4248 c-41 -38 -156 -248 -156 -286 0 -65 74 -104 127 -67 34
24 163 257 163 294 0 69 -82 105 -134 59z"/>
<path d="M875 3555 c-32 -31 -33 -76 -2 -109 12 -13 74 -54 137 -90 133 -76
174 -84 209 -40 25 31 27 71 6 101 -8 12 -71 53 -139 92 -138 79 -171 87 -211
46z"/>
<path d="M3670 3451 c-124 -32 -237 -61 -253 -64 -45 -12 -67 -41 -66 -89 0
-24 58 -268 127 -543 127 -497 127 -499 158 -517 32 -18 32 -18 304 48 185 45
278 72 291 85 44 44 32 110 -25 138 -25 12 -49 8 -247 -42 l-219 -55 -9 37
c-36 134 -73 292 -70 295 2 2 62 17 133 34 146 35 176 54 176 109 0 44 -37 83
-80 83 -17 0 -85 -14 -152 -30 -66 -17 -121 -30 -122 -28 -12 22 -76 322 -70
327 5 5 79 25 164 46 224 53 258 64 280 88 47 50 6 138 -62 136 -18 0 -134
-27 -258 -58z"/>
<path d="M2826 3242 c-288 -73 -306 -81 -306 -141 0 -14 56 -253 125 -531 111
-446 128 -508 151 -527 14 -13 35 -23 47 -23 12 0 139 29 282 64 227 56 262
68 282 91 13 14 23 39 23 56 0 39 -39 79 -77 79 -15 0 -120 -23 -232 -50 -112
-28 -206 -48 -208 -46 -5 4 -82 303 -83 317 0 4 59 21 132 40 148 36 178 55
178 111 0 43 -23 75 -58 83 -18 4 -77 -6 -156 -26 -73 -18 -131 -28 -135 -23
-10 11 -85 313 -80 318 2 2 98 27 214 55 235 58 255 69 255 133 0 36 -26 78
-49 78 -5 0 -15 2 -23 5 -7 2 -134 -26 -282 -63z"/>
<path d="M2030 3043 c-14 -2 -86 -20 -160 -38 -109 -28 -139 -39 -157 -60 -13
-14 -23 -35 -23 -45 0 -19 216 -905 246 -1008 13 -45 20 -56 49 -67 46 -20 93
-3 110 39 12 28 8 51 -36 231 -26 110 -50 209 -51 219 -2 16 7 22 47 33 28 7
53 13 56 13 4 0 79 -86 168 -190 89 -105 172 -199 184 -210 50 -47 137 -7 137
63 0 29 -22 59 -155 215 -85 100 -155 185 -155 189 0 5 17 24 37 43 20 19 49
63 65 98 27 57 30 70 26 150 -4 106 -29 165 -100 234 -70 68 -199 109 -288 91z
m142 -191 c48 -28 72 -71 76 -137 3 -50 0 -66 -20 -94 -12 -19 -35 -43 -49
-53 -24 -18 -209 -72 -217 -63 -8 7 -83 318 -78 322 2 3 44 15 93 28 94 25
148 24 195 -3z"/>
<path d="M1200 2840 c-321 -80 -308 -75 -327 -114 -15 -33 -13 -45 112 -552
138 -558 140 -564 203 -564 35 0 78 31 86 63 3 13 -17 116 -48 239 l-53 217
131 31 c110 27 136 37 159 61 15 16 27 36 27 44 0 29 -20 65 -45 81 -26 17
-32 16 -166 -16 -76 -19 -141 -31 -145 -28 -7 7 -86 319 -82 323 2 1 97 25
212 54 115 28 217 56 226 61 9 5 23 23 30 40 17 42 -2 88 -46 106 -19 8 -35
14 -36 13 -2 -1 -109 -27 -238 -59z"/>
<path d="M3901 1804 c-25 -31 -27 -71 -6 -101 24 -34 257 -163 294 -163 42 0
81 38 81 80 0 44 -34 74 -166 148 -128 72 -169 79 -203 36z"/>
<path d="M1703 1225 c-34 -24 -163 -257 -163 -294 0 -69 82 -105 134 -58 40
37 156 248 156 285 0 65 -74 104 -127 67z"/>
<path d="M3316 1219 c-44 -35 -36 -77 40 -209 74 -129 102 -160 145 -160 41 0
79 39 79 81 0 37 -129 270 -163 294 -30 21 -70 19 -101 -6z"/>
<path d="M2499 994 c-23 -25 -24 -30 -24 -186 l0 -160 28 -24 c36 -31 78 -31
114 0 l28 24 0 160 c0 156 -1 161 -24 186 -34 36 -88 36 -122 0z"/>
</g>
</svg>
