<?xml version="1.0" standalone="no"?>
<!DOCTYPE svg PUBLIC "-//W3C//DTD SVG 20010904//EN"
 "http://www.w3.org/TR/2001/REC-SVG-20010904/DTD/svg10.dtd">
<svg version="1.0" xmlns="http://www.w3.org/2000/svg"
  viewBox="0 0 408.000000 403.000000"
 preserveAspectRatio="xMidYMid meet">

<g transform="translate(0.000000,403.000000) scale(0.100000,-0.100000)"
fill="white" stroke="none">
<path d="M1850 3874 c-212 -38 -277 -58 -402 -119 -177 -87 -353 -235 -450
-378 -61 -89 -123 -230 -148 -337 -27 -109 -31 -295 -11 -393 13 -58 13 -58
-16 -79 -15 -12 -66 -60 -113 -107 -69 -70 -94 -104 -133 -181 -84 -167 -106
-320 -71 -488 67 -327 350 -584 711 -647 64 -11 168 -15 419 -15 261 0 334 -3
334 -12 0 -7 1 -213 4 -456 3 -430 4 -445 24 -464 26 -27 68 -26 95 1 22 21
22 26 24 464 2 243 3 447 3 454 0 8 89 12 338 15 333 4 338 5 426 32 184 56
350 162 459 293 61 74 132 216 157 317 59 234 -16 498 -192 681 -43 46 -95 94
-114 106 -28 20 -34 29 -30 49 3 14 10 69 16 123 31 287 -75 574 -294 792
-164 164 -366 273 -601 327 -87 19 -369 34 -435 22z m361 -149 c221 -41 401
-131 554 -277 142 -135 226 -282 265 -467 26 -119 24 -211 -7 -358 l-18 -85
37 -31 c19 -18 66 -56 102 -85 66 -52 140 -142 178 -215 58 -114 74 -296 37
-427 -32 -118 -73 -185 -169 -280 -101 -101 -165 -140 -303 -189 l-102 -36
-332 -3 -333 -3 0 494 0 495 225 212 c194 182 225 216 225 241 0 16 -9 38 -20
49 -39 39 -63 27 -188 -88 -64 -60 -145 -134 -179 -166 l-62 -57 -3 289 c-3
269 -4 291 -22 311 -24 27 -70 27 -96 1 -24 -24 -23 4 -20 -340 0 -157 -2
-392 -6 -522 l-7 -238 -146 138 c-188 177 -207 192 -241 192 -34 0 -60 -31
-60 -72 0 -22 38 -62 223 -234 122 -114 224 -216 227 -228 3 -12 5 -124 5
-251 l0 -230 -325 0 c-354 1 -419 7 -553 56 -100 36 -184 87 -263 161 -216
203 -266 513 -123 760 45 78 149 187 223 234 67 42 72 58 53 151 -26 124 -30
193 -17 293 21 158 69 277 166 406 160 212 387 348 666 399 102 19 308 18 409
0z"/>
</g>
</svg>
