<?xml version="1.0" standalone="no"?>
<!DOCTYPE svg PUBLIC "-//W3C//DTD SVG 20010904//EN"
 "http://www.w3.org/TR/2001/REC-SVG-20010904/DTD/svg10.dtd">
<svg version="1.0" xmlns="http://www.w3.org/2000/svg"
  viewBox="0 0 713.000000 101.000000"
 preserveAspectRatio="xMidYMid meet">

<g transform="translate(0.000000,101.000000) scale(0.100000,-0.100000)"
fill="white" stroke="none">
<path d="M70 510 l0 -470 80 0 80 0 0 306 c0 234 3 305 12 302 7 -3 100 -139
208 -304 l195 -299 83 -3 82 -3 0 471 0 470 -85 0 -85 0 0 -305 c0 -168 -3
-305 -7 -305 -5 0 -98 137 -207 305 l-200 305 -78 0 -78 0 0 -470z"/>
<path d="M1275 946 c-26 -61 -338 -870 -343 -888 -4 -16 5 -18 81 -18 l85 0
26 67 c14 38 30 80 35 96 l11 27 202 -2 202 -3 35 -92 36 -93 87 0 88 0 -13
32 c-7 18 -89 230 -182 471 l-169 437 -83 0 -84 0 -14 -34z m129 -263 c65
-171 96 -259 96 -270 0 -10 -33 -13 -130 -13 -71 0 -130 3 -130 6 0 16 125
344 131 344 4 0 19 -30 33 -67z"/>
<path d="M1840 895 l0 -85 85 0 85 0 0 -385 0 -385 85 0 85 0 0 385 0 385 85
0 85 0 0 85 0 85 -255 0 -255 0 0 -85z"/>
<path d="M2482 618 c4 -421 5 -427 93 -515 66 -65 133 -88 241 -81 132 9 220
71 266 188 20 52 22 75 26 413 l4 357 -85 0 -86 0 -3 -347 c-3 -310 -5 -351
-21 -380 -24 -45 -58 -65 -114 -66 -58 -2 -101 15 -128 51 -19 26 -20 45 -23
385 l-3 357 -85 0 -85 0 3 -362z"/>
<path d="M3320 511 l0 -471 85 0 85 0 0 201 c0 176 2 200 15 197 9 -2 62 -91
119 -198 l103 -195 92 -3 93 -3 -67 128 c-38 70 -88 165 -112 210 l-44 82 33
14 c83 35 137 111 145 208 12 128 -45 228 -155 270 -47 18 -85 22 -224 27
l-168 5 0 -472z m345 275 c37 -24 49 -62 35 -108 -15 -51 -50 -68 -140 -68
l-70 0 0 101 0 102 74 -5 c47 -3 85 -11 101 -22z"/>
<path d="M4155 543 c-93 -241 -175 -453 -182 -470 l-13 -33 87 0 88 0 35 93
35 92 203 3 202 2 11 -27 c5 -16 21 -58 35 -96 l26 -67 84 0 c46 0 84 3 84 8
0 4 -80 214 -178 467 l-178 460 -85 3 -85 3 -169 -438z m323 40 c34 -93 62
-171 62 -175 0 -5 -58 -8 -130 -8 -94 0 -130 3 -130 12 0 18 122 338 129 338
3 0 34 -75 69 -167z"/>
<path d="M4970 516 l0 -463 38 -7 c48 -8 153 -8 285 1 l107 6 0 74 0 73 -69 0
c-37 0 -96 3 -130 6 l-61 7 0 383 0 384 -85 0 -85 0 0 -464z"/>
<path d="M5550 515 l0 -465 80 0 80 0 0 465 0 465 -80 0 -80 0 0 -465z"/>
<path d="M5940 510 l0 -470 58 0 c110 0 102 -17 102 216 l0 203 143 3 142 3 3
83 3 82 -146 0 -145 0 0 90 0 90 145 0 145 0 0 80 c0 44 -1 80 -2 81 -2 1
-103 3 -225 5 l-223 4 0 -470z"/>
<path d="M6566 973 c-3 -3 -6 -215 -6 -470 l0 -463 228 0 c125 0 237 3 250 6
20 6 22 12 22 85 l0 79 -165 0 -165 0 0 125 0 125 153 2 c83 0 158 1 165 1 9
-1 12 22 12 83 0 46 -3 83 -7 83 -5 -1 -79 -1 -165 0 l-158 1 0 90 0 90 165 0
165 0 0 83 0 82 -244 2 c-134 1 -246 0 -250 -4z"/>
</g>
</svg>
