<?xml version="1.0" standalone="no"?>
<!DOCTYPE svg PUBLIC "-//W3C//DTD SVG 20010904//EN"
 "http://www.w3.org/TR/2001/REC-SVG-20010904/DTD/svg10.dtd">
<svg  version="1.0" xmlns="http://www.w3.org/2000/svg"
 width="281.000000pt" height="70.000000pt" viewBox="0 0 281.000000 70.000000"
 preserveAspectRatio="xMidYMid meet" >

<g transform="translate(0.000000,70.000000) scale(0.100000,-0.100000)"
fill="#429142" stroke="none">
<path d="M810 651 c-13 -25 -13 -72 0 -105 13 -36 78 -105 130 -138 l45 -29
-478 3 -477 3 0 -33 0 -33 415 3 c228 2 415 1 415 -2 0 -3 -13 -12 -29 -22
-39 -22 -63 -70 -63 -126 0 -39 5 -51 31 -74 39 -35 79 -36 147 -4 61 28 116
81 145 138 l22 42 27 -54 c58 -114 140 -181 223 -182 132 -2 81 188 -72 267
-17 8 -31 17 -31 19 0 1 183 2 408 2 l407 -1 3 -44 c7 -104 67 -182 186 -241
102 -52 206 -32 206 38 0 31 -29 99 -61 143 -23 33 -21 34 45 14 66 -20 191
-19 255 2 203 65 74 196 -196 197 l-101 1 34 28 c56 46 82 122 62 176 -8 23
-11 24 -89 18 -170 -11 -285 -106 -335 -276 -3 -8 -11 -11 -22 -6 -9 3 -197 6
-417 6 -397 0 -400 0 -339 18 100 29 159 74 188 143 27 64 -3 108 -73 108 -91
0 -238 -98 -286 -191 -9 -16 -19 -29 -24 -29 -5 0 -16 19 -25 43 -42 108 -142
197 -223 197 -32 0 -45 -5 -53 -19z"/>
</g>
</svg>
